<svg width="20" height="20" viewBox="0 0 20 20" fill="none" xmlns="http://www.w3.org/2000/svg">
    <path d="M10 10.417a5 5 0 1 0-5-5 5.005 5.005 0 0 0 5 5zm0-1.667a3.333 3.333 0 0 1-3.333-3.333c.001-.42.084-.837.245-1.225.023-.056.069-.1.126-.12a.208.208 0 0 1 .174.02 7.977 7.977 0 0 0 4.104 1.135 7.93 7.93 0 0 0 1.75-.197.208.208 0 0 1 .25.18c.01.068.015.137.017.207A3.333 3.333 0 0 1 10 8.75zM10 11.25a7.926 7.926 0 0 0-7.916 7.917c0 .23.187.416.417.416h15c.23 0 .416-.186.416-.416a7.926 7.926 0 0 0-7.916-7.917z" fill="#706E83"/>
</svg>